<svg fill="#ffffff" width="103" height="38" xmlns="http://www.w3.org/2000/svg">
 <desc>Created with Fabric.js 3.5.0</desc>

 <g>
  <title>background</title>
  <rect x="-1" y="-1" width="105" height="40" id="canvas_background" fill="none"/>
 </g>
 <g>
  <title>Layer 1</title>
  <rect stroke="#ffffff" x="-2.792834" y="-1.699332" width="114.353515" height="46.978945" fill="none" id="svg_1"/>
  <path d="m51.31703,13.68117l4.61389,-0.28958q0.15093,1.12496 0.61074,1.71288q0.75114,0.95297 2.1411,0.95297q1.03721,0 1.60056,-0.48614a1.46367,1.46367 0 0 0 0.5616,-1.13022a1.43559,1.43559 0 0 0 -0.5265,-1.09161q-0.5265,-0.48087 -2.48332,-0.91084q-3.19059,-0.71604 -4.55072,-1.90593a3.83292,3.83292 0 0 1 -1.37065,-3.02913a4.11372,4.11372 0 0 1 0.702,-2.2815a4.64548,4.64548 0 0 1 2.106,-1.69182q1.404,-0.61601 3.861,-0.61601q3.00807,0 4.58757,1.11969t1.8796,3.55914l-4.57177,0.26676q-0.1755,-1.053 -0.76518,-1.54089t-1.6146,-0.48613c-0.56336,0 -0.98807,0.12109 -1.27238,0.35977a1.09688,1.09688 0 0 0 -0.42822,0.8775a0.8775,0.8775 0 0 0 0.351,0.67392q0.34223,0.31064 1.62689,0.57915q3.18006,0.68445 4.563,1.38645t2.0007,1.73921a4.40856,4.40856 0 0 1 0.62653,2.32362a4.97893,4.97893 0 0 1 -0.83362,2.78343a5.23517,5.23517 0 0 1 -2.33415,1.9305q-1.50053,0.65812 -3.78027,0.65812q-4.00316,0 -5.5458,-1.54089t-1.755,-3.92242zm-47.2253,5.20006l0,-15.70198l8.08353,0q2.24816,0 3.43629,0.38434a3.67321,3.67321 0 0 1 1.91646,1.42857a4.34363,4.34363 0 0 1 0.73184,2.543a4.3524,4.3524 0 0 1 -0.5616,2.25342a4.37171,4.37171 0 0 1 -1.53212,1.54615a5.90207,5.90207 0 0 1 -1.70235,0.62127a4.87715,4.87715 0 0 1 1.26185,0.5774a4.87715,4.87715 0 0 1 0.77922,0.81783a6.17058,6.17058 0 0 1 0.67567,0.967l2.34819,4.563l-5.48086,0l-2.59038,-4.80343q-0.49316,-0.93191 -0.8775,-1.21095a2.04107,2.04107 0 0 0 -1.18989,-0.36329l-0.43173,0l0,6.37767l-4.86662,0zm4.86662,-9.34362l2.04984,0a7.1955,7.1955 0 0 0 1.28466,-0.21411a1.28115,1.28115 0 0 0 0.78624,-0.49315a1.44612,1.44612 0 0 0 0.30537,-0.90909a1.44437,1.44437 0 0 0 -0.48263,-1.16708q-0.48087,-0.40716 -1.8094,-0.40716l-2.13408,0l0,3.19059zm-5.967,22.7799l4.61389,-0.28782q0.15093,1.12496 0.61074,1.71288q0.74237,0.95297 2.14637,0.95297q1.0372,0 1.60056,-0.48789a1.46367,1.46367 0 0 0 0.5616,-1.13022a1.4391,1.4391 0 0 0 -0.5265,-1.09161q-0.5265,-0.48087 -2.48333,-0.90909q-3.19059,-0.71955 -4.55071,-1.90593a3.83819,3.83819 0 0 1 -1.37066,-3.03089a4.12249,4.12249 0 0 1 0.702,-2.2815a4.64548,4.64548 0 0 1 2.106,-1.69182q1.404,-0.616 3.861,-0.616q3.00807,0 4.58757,1.11969t1.87961,3.55914l-4.563,0.26851q-0.1755,-1.053 -0.76518,-1.54264t-1.61285,-0.48087q-0.84415,0 -1.27237,0.351a1.09688,1.09688 0 0 0 -0.42822,0.8775a0.8775,0.8775 0 0 0 0.351,0.67567q0.34222,0.31064 1.62688,0.5774q3.18006,0.68445 4.563,1.38645t2.0007,1.7392a4.41383,4.41383 0 0 1 0.62654,2.32362a4.97542,4.97542 0 0 1 -0.83363,2.78343a5.23517,5.23517 0 0 1 -2.33415,1.9305q-1.50052,0.65813 -3.78027,0.65813q-4.00315,0 -5.5458,-1.54089t-1.77079,-3.91892zm28.6065,-1.23025l4.25061,1.28466a7.84836,7.84836 0 0 1 -1.3496,2.9835a5.87223,5.87223 0 0 1 -2.2815,1.8094q-1.36539,0.60899 -3.4749,0.60899q-2.55879,0 -4.18041,-0.74237t-2.808,-2.6167q-1.17936,-1.87259 -1.1776,-4.79291q0,-3.89259 2.0709,-5.9863t5.8617,-2.09196q2.9677,0 4.66303,1.20042t2.52018,3.6855l-4.2822,0.95296a3.6855,3.6855 0 0 0 -0.47034,-1.053a2.808,2.808 0 0 0 -0.99508,-0.85644a2.8624,2.8624 0 0 0 -1.31801,-0.3001q-1.64794,0 -2.52544,1.32678q-0.6669,0.98455 -0.66515,3.09055q0,2.60793 0.79326,3.57669t2.2271,0.96701q1.38996,0 2.106,-0.78098t1.03545,-2.2657zm7.987,-9.27167l4.84907,0l0,5.48964l5.3001,0l0,-5.48964l4.87012,0l0,15.69497l-4.87012,0l0,-6.34433l-5.3001,0l0,6.34959l-4.84907,0l0,-15.70023zm18.03789,7.85714q0,-3.83994 2.1411,-5.98455t5.967,-2.1411q3.91716,0 6.0372,2.106t2.12531,5.89153q0,2.7536 -0.92664,4.51386a6.58827,6.58827 0 0 1 -2.67638,2.73956q-1.755,0.97929 -4.36293,0.97929q-2.65356,0 -4.3875,-0.84591a6.59705,6.59705 0 0 1 -2.82028,-2.67638q-1.09863,-1.82871 -1.09688,-4.5823zm4.84907,0.02281q0,2.37803 0.8775,3.41523t2.40435,1.03721q1.5637,0 2.42014,-1.01615t0.85644,-3.6504q0,-2.21656 -0.89505,-3.23973t-2.42541,-1.02141a2.94489,2.94489 0 0 0 -2.34643,1.03194q-0.88979,1.053 -0.89154,3.44331z" stroke-linecap="round" stroke=" none" id="svg_4"/>
  <path d="m71.83649,29.67274q0,-3.83994 2.1411,-5.98455t5.967,-2.1411q3.92067,0 6.03895,2.106t2.11829,5.89329q0,2.7536 -0.92489,4.51386a6.5988,6.5988 0 0 1 -2.67637,2.73956q-1.755,0.97929 -4.36293,0.97929q-2.65532,0 -4.3875,-0.84591a6.61109,6.61109 0 0 1 -2.82204,-2.67638q-1.09161,-1.83046 -1.09161,-4.58406zm4.85082,0.02282q0,2.37802 0.8775,3.41523t2.40786,1.03896q1.5637,0 2.42014,-1.01615t0.85644,-3.6504q0,-2.21656 -0.89329,-3.23973t-2.42541,-1.02141a2.94313,2.94313 0 0 0 -2.3517,1.03019q-0.8933,1.053 -0.89154,3.44331z" stroke-linecap="round" stroke=" none" id="svg_6"/>
  <path d="m87.59638,21.81559l4.85082,0l0,11.83046l7.56932,0l0,3.861l-12.42014,0l0,-15.69146z" stroke-linecap="round" stroke=" none" id="svg_8"/>
 </g>
</svg>